<?xml version="1.0" encoding="UTF-8"?>
<svg width="96px" height="84px" viewBox="0 0 96 84" version="1.1" xmlns="http://www.w3.org/2000/svg" xmlns:xlink="http://www.w3.org/1999/xlink">
    <!-- Generator: Sketch 54.1 (76490) - https://sketchapp.com -->
    <title>new</title>
    <desc>Created with Sketch.</desc>
    <g id="Page-1" stroke="none" stroke-width="1" fill="none" fill-rule="evenodd">
        <g id="Artboard">
            <g id="new">
                <polygon id="Rectangle" fill="#487488" points="0 0 96 0 96 84 48 73 0 84"></polygon>
                <path d="M34.646,37.136 L35.658,38.984 C33.766,39.644 31.676,40.04 29.388,40.194 L29.388,43.758 L36.186,43.758 L36.186,45.76 L34.074,45.76 L34.074,57.288 L32.028,57.288 L32.028,45.76 L29.388,45.76 L29.388,47.982 C29.278,51.854 28.42,54.934 26.814,57.244 L25.34,55.66 C26.594,53.812 27.276,51.26 27.364,47.982 L27.364,38.478 C30.07,38.434 32.49,37.972 34.646,37.136 Z M16.276,38.698 L20.192,38.698 C19.928,38.126 19.62,37.576 19.29,37.07 L21.446,36.718 C21.71,37.312 21.996,37.972 22.26,38.698 L26.33,38.698 L26.33,40.634 L16.276,40.634 L16.276,38.698 Z M16.056,43.692 L18.388,43.692 C18.102,42.922 17.772,42.196 17.398,41.536 L19.224,40.854 C19.576,41.646 19.928,42.592 20.236,43.692 L22.326,43.692 C22.678,42.768 22.986,41.822 23.25,40.832 L25.12,41.492 C24.856,42.306 24.548,43.032 24.218,43.692 L26.462,43.692 L26.462,45.606 L22.392,45.606 L22.392,47.586 L26.088,47.586 L26.088,49.478 L22.392,49.478 L22.392,55.374 C22.392,56.694 21.666,57.354 20.214,57.354 L19.07,57.354 L18.608,55.418 C18.938,55.506 19.246,55.55 19.532,55.55 C20.06,55.55 20.324,55.33 20.324,54.89 L20.324,49.478 L16.408,49.478 L16.408,47.586 L20.324,47.586 L20.324,45.606 L16.056,45.606 L16.056,43.692 Z M17.728,50.446 L19.62,50.842 C19.092,53.064 18.366,55 17.398,56.65 L15.682,55.55 C16.65,53.966 17.332,52.25 17.728,50.446 Z M24.614,50.292 C25.186,51.7 25.648,52.976 25.978,54.12 L24.218,54.78 C23.866,53.416 23.426,52.074 22.898,50.754 L24.614,50.292 Z M41.07,41.25 L38.078,41.25 L38.078,39.248 L46.152,39.248 L46.152,41.25 L43.16,41.25 L43.16,50.732 C44.26,50.402 45.338,50.05 46.416,49.654 L46.416,51.744 C43.886,52.646 41.202,53.416 38.342,54.032 L37.814,51.92 C38.914,51.744 39.992,51.524 41.07,51.282 L41.07,41.25 Z M49.892,37.026 L52.004,37.026 L52.004,41.294 L57.526,41.294 C57.526,48.466 57.416,52.91 57.196,54.604 C56.91,56.254 55.634,57.09 53.39,57.09 C52.994,57.09 52.29,57.046 51.3,56.98 L50.794,55.022 C51.674,55.088 52.422,55.132 53.038,55.132 C54.314,55.132 55.04,54.626 55.238,53.636 C55.37,52.602 55.436,49.17 55.48,43.318 L52.004,43.318 L52.004,43.384 C51.916,49.764 50.2,54.45 46.856,57.442 L45.14,55.924 C48.264,53.328 49.848,49.148 49.892,43.384 L49.892,43.318 L46.57,43.318 L46.57,41.294 L49.892,41.294 L49.892,37.026 Z M63.224,49.852 L63.224,51.458 L67.756,51.458 L67.756,49.852 L63.224,49.852 Z M67.756,48.136 L67.756,46.442 L63.224,46.442 L63.224,48.136 L67.756,48.136 Z M63.224,53.196 L63.224,57.31 L61.2,57.31 L61.2,44.616 L69.78,44.616 L69.78,54.868 C69.78,56.386 69.054,57.156 67.646,57.156 L65.93,57.156 L65.424,55.198 L66.986,55.286 C67.492,55.286 67.756,55 67.756,54.428 L67.756,53.196 L63.224,53.196 Z M77.282,46.706 L73.696,46.706 C72.156,46.706 71.408,45.87 71.408,44.198 L71.408,37.048 L73.476,37.048 L73.476,39.644 C75.742,39.292 77.59,38.94 79.02,38.544 L79.702,40.392 C77.898,40.81 75.83,41.206 73.476,41.558 L73.476,43.758 C73.476,44.462 73.74,44.836 74.268,44.836 L76.886,44.836 C77.238,44.836 77.48,44.726 77.634,44.506 C77.81,44.242 77.942,43.494 77.986,42.262 L79.944,42.9 C79.768,44.726 79.46,45.826 79.064,46.2 C78.668,46.53 78.074,46.706 77.282,46.706 Z M73.476,51.788 L73.476,54.472 C73.476,54.868 73.718,55.066 74.246,55.066 L76.908,55.066 C77.26,55.066 77.524,54.956 77.678,54.758 C77.854,54.494 77.986,53.746 78.052,52.514 L79.944,53.13 C79.768,54.978 79.482,56.078 79.086,56.43 C78.712,56.76 78.118,56.936 77.304,56.936 L73.652,56.936 C72.156,56.936 71.408,56.254 71.408,54.934 L71.408,47.476 L73.476,47.476 L73.476,49.896 C75.544,49.676 77.392,49.302 79.02,48.818 L79.702,50.688 C77.766,51.216 75.676,51.568 73.476,51.788 Z M68.196,38.5 C69.494,40.238 70.484,41.756 71.188,43.032 L69.472,44.264 C69.252,43.824 69.01,43.362 68.746,42.9 C66.458,43.252 63.708,43.516 60.496,43.692 L59.924,41.954 C60.298,41.822 60.606,41.646 60.87,41.426 C62.212,39.93 63.246,38.434 63.95,36.938 L65.952,37.532 C65.028,39.336 63.994,40.766 62.85,41.866 C64.39,41.778 66.062,41.602 67.844,41.382 C67.448,40.766 67.03,40.15 66.59,39.512 L68.196,38.5 Z" id="新功能" fill="#FFFFFF" fill-rule="nonzero"></path>
            </g>
        </g>
    </g>
</svg>